<mxfile host="app.diagrams.net" agent="Mozilla/5.0 (Windows NT 10.0; Win64; x64) AppleWebKit/537.36 (KHTML, like Gecko) Chrome/129.0.0.0 Safari/537.36 Edg/129.0.0.0" version="24.7.16">
  <diagram name="Page-1" id="tWwGJDd1BKMliuyMHz1E">
    <mxGraphModel dx="1810" dy="1141" grid="1" gridSize="10" guides="1" tooltips="1" connect="1" arrows="1" fold="1" page="1" pageScale="1" pageWidth="850" pageHeight="1100" math="0" shadow="0">
      <root>
        <mxCell id="0" />
        <mxCell id="1" parent="0" />
        <mxCell id="FFGEd19_PelASJCq2h37-7" value="HR" style="sketch=0;aspect=fixed;pointerEvents=1;shadow=0;dashed=0;html=1;strokeColor=none;labelPosition=center;verticalLabelPosition=bottom;verticalAlign=top;align=center;fillColor=#00188D;shape=mxgraph.mscae.enterprise.database_server" parent="1" vertex="1">
          <mxGeometry x="67" y="460" width="38" height="50" as="geometry" />
        </mxCell>
        <mxCell id="FFGEd19_PelASJCq2h37-28" style="edgeStyle=orthogonalEdgeStyle;rounded=0;orthogonalLoop=1;jettySize=auto;html=1;" parent="1" source="FFGEd19_PelASJCq2h37-8" target="FFGEd19_PelASJCq2h37-17" edge="1">
          <mxGeometry relative="1" as="geometry" />
        </mxCell>
        <mxCell id="FFGEd19_PelASJCq2h37-29" value="密码校验&amp;amp;Token" style="edgeLabel;html=1;align=center;verticalAlign=middle;resizable=0;points=[];" parent="FFGEd19_PelASJCq2h37-28" vertex="1" connectable="0">
          <mxGeometry x="-0.3961" y="-2" relative="1" as="geometry">
            <mxPoint x="44" y="-2" as="offset" />
          </mxGeometry>
        </mxCell>
        <mxCell id="FFGEd19_PelASJCq2h37-8" value="SSO Back" style="sketch=0;aspect=fixed;pointerEvents=1;shadow=0;dashed=0;html=1;strokeColor=none;labelPosition=center;verticalLabelPosition=bottom;verticalAlign=top;align=center;fillColor=#00188D;shape=mxgraph.mscae.enterprise.database_server" parent="1" vertex="1">
          <mxGeometry x="193" y="580" width="38" height="50" as="geometry" />
        </mxCell>
        <mxCell id="FFGEd19_PelASJCq2h37-9" value="全量用户数据" style="image;sketch=0;aspect=fixed;html=1;points=[];align=center;fontSize=12;image=img/lib/mscae/AzureFXTEdgeFiler.svg;" parent="1" vertex="1">
          <mxGeometry x="187" y="460" width="50" height="50" as="geometry" />
        </mxCell>
        <mxCell id="FFGEd19_PelASJCq2h37-10" style="edgeStyle=orthogonalEdgeStyle;rounded=0;orthogonalLoop=1;jettySize=auto;html=1;entryX=-0.049;entryY=0.506;entryDx=0;entryDy=0;entryPerimeter=0;" parent="1" source="FFGEd19_PelASJCq2h37-7" target="FFGEd19_PelASJCq2h37-9" edge="1">
          <mxGeometry relative="1" as="geometry" />
        </mxCell>
        <mxCell id="FFGEd19_PelASJCq2h37-11" value="PUSH" style="edgeLabel;html=1;align=center;verticalAlign=middle;resizable=0;points=[];" parent="FFGEd19_PelASJCq2h37-10" vertex="1" connectable="0">
          <mxGeometry x="-0.038" y="1" relative="1" as="geometry">
            <mxPoint x="1" as="offset" />
          </mxGeometry>
        </mxCell>
        <mxCell id="FFGEd19_PelASJCq2h37-14" style="edgeStyle=orthogonalEdgeStyle;rounded=0;orthogonalLoop=1;jettySize=auto;html=1;entryX=0.5;entryY=0;entryDx=0;entryDy=0;entryPerimeter=0;" parent="1" source="FFGEd19_PelASJCq2h37-9" target="FFGEd19_PelASJCq2h37-8" edge="1">
          <mxGeometry relative="1" as="geometry" />
        </mxCell>
        <mxCell id="FFGEd19_PelASJCq2h37-15" value="PULL" style="edgeLabel;html=1;align=center;verticalAlign=middle;resizable=0;points=[];" parent="FFGEd19_PelASJCq2h37-14" vertex="1" connectable="0">
          <mxGeometry x="0.1363" y="1" relative="1" as="geometry">
            <mxPoint as="offset" />
          </mxGeometry>
        </mxCell>
        <mxCell id="FFGEd19_PelASJCq2h37-16" value="用户中心" style="sketch=0;aspect=fixed;pointerEvents=1;shadow=0;dashed=0;html=1;strokeColor=none;labelPosition=center;verticalLabelPosition=bottom;verticalAlign=top;align=center;fillColor=#00188D;shape=mxgraph.mscae.enterprise.database_server" parent="1" vertex="1">
          <mxGeometry x="307" y="460" width="38" height="50" as="geometry" />
        </mxCell>
        <mxCell id="FFGEd19_PelASJCq2h37-17" value="安全中心" style="sketch=0;aspect=fixed;pointerEvents=1;shadow=0;dashed=0;html=1;strokeColor=none;labelPosition=center;verticalLabelPosition=bottom;verticalAlign=top;align=center;fillColor=#00188D;shape=mxgraph.mscae.enterprise.database_server" parent="1" vertex="1">
          <mxGeometry x="387" y="460" width="38" height="50" as="geometry" />
        </mxCell>
        <mxCell id="FFGEd19_PelASJCq2h37-23" style="edgeStyle=orthogonalEdgeStyle;rounded=0;orthogonalLoop=1;jettySize=auto;html=1;" parent="1" source="FFGEd19_PelASJCq2h37-18" target="FFGEd19_PelASJCq2h37-8" edge="1">
          <mxGeometry relative="1" as="geometry" />
        </mxCell>
        <mxCell id="FFGEd19_PelASJCq2h37-24" value="Login" style="edgeLabel;html=1;align=center;verticalAlign=middle;resizable=0;points=[];" parent="FFGEd19_PelASJCq2h37-23" vertex="1" connectable="0">
          <mxGeometry x="-0.0452" y="-5" relative="1" as="geometry">
            <mxPoint as="offset" />
          </mxGeometry>
        </mxCell>
        <mxCell id="FFGEd19_PelASJCq2h37-18" value="SSO Web" style="sketch=0;aspect=fixed;pointerEvents=1;shadow=0;dashed=0;html=1;strokeColor=none;labelPosition=center;verticalLabelPosition=bottom;verticalAlign=top;align=center;fillColor=#00188D;shape=mxgraph.mscae.enterprise.web_server" parent="1" vertex="1">
          <mxGeometry x="193" y="700" width="38" height="50" as="geometry" />
        </mxCell>
        <mxCell id="FFGEd19_PelASJCq2h37-25" style="edgeStyle=orthogonalEdgeStyle;rounded=0;orthogonalLoop=1;jettySize=auto;html=1;" parent="1" edge="1">
          <mxGeometry relative="1" as="geometry">
            <mxPoint x="237" y="605.0285714285715" as="sourcePoint" />
            <mxPoint x="307" y="485" as="targetPoint" />
            <Array as="points">
              <mxPoint x="267" y="605" />
              <mxPoint x="267" y="485" />
            </Array>
          </mxGeometry>
        </mxCell>
        <mxCell id="FFGEd19_PelASJCq2h37-26" value="用户校验" style="edgeLabel;html=1;align=center;verticalAlign=middle;resizable=0;points=[];" parent="FFGEd19_PelASJCq2h37-25" vertex="1" connectable="0">
          <mxGeometry x="-0.0076" y="-2" relative="1" as="geometry">
            <mxPoint as="offset" />
          </mxGeometry>
        </mxCell>
        <mxCell id="huJF_Qs0aNRU9yXHvJFa-2" value="SSO Web" style="sketch=0;aspect=fixed;pointerEvents=1;shadow=0;dashed=0;html=1;strokeColor=none;labelPosition=center;verticalLabelPosition=bottom;verticalAlign=top;align=center;fillColor=#00188D;shape=mxgraph.mscae.enterprise.web_server" vertex="1" parent="1">
          <mxGeometry x="160" y="830" width="38" height="50" as="geometry" />
        </mxCell>
        <mxCell id="huJF_Qs0aNRU9yXHvJFa-3" value="SSO Back" style="sketch=0;aspect=fixed;pointerEvents=1;shadow=0;dashed=0;html=1;strokeColor=none;labelPosition=center;verticalLabelPosition=bottom;verticalAlign=top;align=center;fillColor=#00188D;shape=mxgraph.mscae.enterprise.database_server" vertex="1" parent="1">
          <mxGeometry x="340" y="830" width="38" height="50" as="geometry" />
        </mxCell>
        <mxCell id="huJF_Qs0aNRU9yXHvJFa-5" style="edgeStyle=orthogonalEdgeStyle;rounded=0;orthogonalLoop=1;jettySize=auto;html=1;entryX=0;entryY=0.5;entryDx=0;entryDy=0;entryPerimeter=0;" edge="1" parent="1" source="huJF_Qs0aNRU9yXHvJFa-2" target="huJF_Qs0aNRU9yXHvJFa-3">
          <mxGeometry relative="1" as="geometry" />
        </mxCell>
        <mxCell id="huJF_Qs0aNRU9yXHvJFa-6" value="系统访问权限申请" style="edgeLabel;html=1;align=center;verticalAlign=middle;resizable=0;points=[];" vertex="1" connectable="0" parent="huJF_Qs0aNRU9yXHvJFa-5">
          <mxGeometry x="-0.1018" y="-2" relative="1" as="geometry">
            <mxPoint as="offset" />
          </mxGeometry>
        </mxCell>
        <mxCell id="huJF_Qs0aNRU9yXHvJFa-9" value="" style="sketch=0;aspect=fixed;pointerEvents=1;shadow=0;dashed=0;html=1;strokeColor=none;labelPosition=center;verticalLabelPosition=bottom;verticalAlign=top;align=center;fillColor=#00188D;shape=mxgraph.azure.user" vertex="1" parent="1">
          <mxGeometry x="50" y="830" width="47" height="50" as="geometry" />
        </mxCell>
        <mxCell id="huJF_Qs0aNRU9yXHvJFa-10" style="edgeStyle=orthogonalEdgeStyle;rounded=0;orthogonalLoop=1;jettySize=auto;html=1;entryX=0;entryY=0.5;entryDx=0;entryDy=0;entryPerimeter=0;" edge="1" parent="1" source="huJF_Qs0aNRU9yXHvJFa-9" target="huJF_Qs0aNRU9yXHvJFa-2">
          <mxGeometry relative="1" as="geometry" />
        </mxCell>
        <mxCell id="huJF_Qs0aNRU9yXHvJFa-17" value="SSO Web" style="sketch=0;aspect=fixed;pointerEvents=1;shadow=0;dashed=0;html=1;strokeColor=none;labelPosition=center;verticalLabelPosition=bottom;verticalAlign=top;align=center;fillColor=#00188D;shape=mxgraph.mscae.enterprise.web_server" vertex="1" parent="1">
          <mxGeometry x="160" y="960" width="38" height="50" as="geometry" />
        </mxCell>
        <mxCell id="huJF_Qs0aNRU9yXHvJFa-31" style="edgeStyle=orthogonalEdgeStyle;rounded=0;orthogonalLoop=1;jettySize=auto;html=1;entryX=0;entryY=0.5;entryDx=0;entryDy=0;entryPerimeter=0;" edge="1" parent="1" source="huJF_Qs0aNRU9yXHvJFa-18" target="huJF_Qs0aNRU9yXHvJFa-25">
          <mxGeometry relative="1" as="geometry">
            <mxPoint x="425" y="985" as="targetPoint" />
          </mxGeometry>
        </mxCell>
        <mxCell id="huJF_Qs0aNRU9yXHvJFa-36" value="YES" style="edgeLabel;html=1;align=center;verticalAlign=middle;resizable=0;points=[];" vertex="1" connectable="0" parent="huJF_Qs0aNRU9yXHvJFa-31">
          <mxGeometry x="0.0456" relative="1" as="geometry">
            <mxPoint x="-10" as="offset" />
          </mxGeometry>
        </mxCell>
        <mxCell id="huJF_Qs0aNRU9yXHvJFa-32" style="edgeStyle=orthogonalEdgeStyle;rounded=0;orthogonalLoop=1;jettySize=auto;html=1;exitX=0.5;exitY=1;exitDx=0;exitDy=0;exitPerimeter=0;entryX=0.5;entryY=1;entryDx=0;entryDy=0;entryPerimeter=0;" edge="1" parent="1" source="huJF_Qs0aNRU9yXHvJFa-18" target="huJF_Qs0aNRU9yXHvJFa-17">
          <mxGeometry relative="1" as="geometry">
            <Array as="points">
              <mxPoint x="359" y="1050" />
              <mxPoint x="179" y="1050" />
            </Array>
          </mxGeometry>
        </mxCell>
        <mxCell id="huJF_Qs0aNRU9yXHvJFa-63" value="NO" style="edgeLabel;html=1;align=center;verticalAlign=middle;resizable=0;points=[];" vertex="1" connectable="0" parent="huJF_Qs0aNRU9yXHvJFa-32">
          <mxGeometry x="0.0884" y="1" relative="1" as="geometry">
            <mxPoint as="offset" />
          </mxGeometry>
        </mxCell>
        <mxCell id="huJF_Qs0aNRU9yXHvJFa-18" value="SSO Back" style="sketch=0;aspect=fixed;pointerEvents=1;shadow=0;dashed=0;html=1;strokeColor=none;labelPosition=center;verticalLabelPosition=bottom;verticalAlign=top;align=center;fillColor=#00188D;shape=mxgraph.mscae.enterprise.database_server" vertex="1" parent="1">
          <mxGeometry x="340" y="960" width="38" height="50" as="geometry" />
        </mxCell>
        <mxCell id="huJF_Qs0aNRU9yXHvJFa-19" style="edgeStyle=orthogonalEdgeStyle;rounded=0;orthogonalLoop=1;jettySize=auto;html=1;entryX=0;entryY=0.5;entryDx=0;entryDy=0;entryPerimeter=0;" edge="1" parent="1" source="huJF_Qs0aNRU9yXHvJFa-17" target="huJF_Qs0aNRU9yXHvJFa-18">
          <mxGeometry relative="1" as="geometry" />
        </mxCell>
        <mxCell id="huJF_Qs0aNRU9yXHvJFa-20" value="系统访问权限审批" style="edgeLabel;html=1;align=center;verticalAlign=middle;resizable=0;points=[];" vertex="1" connectable="0" parent="huJF_Qs0aNRU9yXHvJFa-19">
          <mxGeometry x="-0.1018" y="-2" relative="1" as="geometry">
            <mxPoint as="offset" />
          </mxGeometry>
        </mxCell>
        <mxCell id="huJF_Qs0aNRU9yXHvJFa-23" value="" style="sketch=0;aspect=fixed;pointerEvents=1;shadow=0;dashed=0;html=1;strokeColor=none;labelPosition=center;verticalLabelPosition=bottom;verticalAlign=top;align=center;shape=mxgraph.mscae.enterprise.user_permissions;fillColor=#0078D7;" vertex="1" parent="1">
          <mxGeometry x="50" y="960" width="47" height="50" as="geometry" />
        </mxCell>
        <mxCell id="huJF_Qs0aNRU9yXHvJFa-24" style="edgeStyle=orthogonalEdgeStyle;rounded=0;orthogonalLoop=1;jettySize=auto;html=1;entryX=0;entryY=0.5;entryDx=0;entryDy=0;entryPerimeter=0;" edge="1" parent="1" source="huJF_Qs0aNRU9yXHvJFa-23" target="huJF_Qs0aNRU9yXHvJFa-17">
          <mxGeometry relative="1" as="geometry" />
        </mxCell>
        <mxCell id="huJF_Qs0aNRU9yXHvJFa-59" style="edgeStyle=orthogonalEdgeStyle;rounded=0;orthogonalLoop=1;jettySize=auto;html=1;exitX=0.5;exitY=0;exitDx=0;exitDy=0;exitPerimeter=0;" edge="1" parent="1" source="huJF_Qs0aNRU9yXHvJFa-25" target="huJF_Qs0aNRU9yXHvJFa-58">
          <mxGeometry relative="1" as="geometry" />
        </mxCell>
        <mxCell id="huJF_Qs0aNRU9yXHvJFa-60" value="Token校验" style="edgeLabel;html=1;align=center;verticalAlign=middle;resizable=0;points=[];" vertex="1" connectable="0" parent="huJF_Qs0aNRU9yXHvJFa-59">
          <mxGeometry x="-0.1589" y="1" relative="1" as="geometry">
            <mxPoint as="offset" />
          </mxGeometry>
        </mxCell>
        <mxCell id="huJF_Qs0aNRU9yXHvJFa-25" value="财管" style="sketch=0;aspect=fixed;pointerEvents=1;shadow=0;dashed=0;html=1;strokeColor=none;labelPosition=center;verticalLabelPosition=bottom;verticalAlign=top;align=center;fillColor=#00188D;shape=mxgraph.mscae.enterprise.database_server" vertex="1" parent="1">
          <mxGeometry x="560" y="960" width="38" height="50" as="geometry" />
        </mxCell>
        <mxCell id="huJF_Qs0aNRU9yXHvJFa-62" style="edgeStyle=orthogonalEdgeStyle;rounded=0;orthogonalLoop=1;jettySize=auto;html=1;entryX=0;entryY=0.5;entryDx=0;entryDy=0;" edge="1" parent="1" source="huJF_Qs0aNRU9yXHvJFa-43" target="huJF_Qs0aNRU9yXHvJFa-61">
          <mxGeometry relative="1" as="geometry" />
        </mxCell>
        <mxCell id="huJF_Qs0aNRU9yXHvJFa-43" value="财管Web" style="sketch=0;aspect=fixed;pointerEvents=1;shadow=0;dashed=0;html=1;strokeColor=none;labelPosition=center;verticalLabelPosition=bottom;verticalAlign=top;align=center;fillColor=#00188D;shape=mxgraph.mscae.enterprise.web_server" vertex="1" parent="1">
          <mxGeometry x="700" y="960" width="38" height="50" as="geometry" />
        </mxCell>
        <mxCell id="huJF_Qs0aNRU9yXHvJFa-44" style="edgeStyle=orthogonalEdgeStyle;rounded=0;orthogonalLoop=1;jettySize=auto;html=1;entryX=0;entryY=0.5;entryDx=0;entryDy=0;entryPerimeter=0;" edge="1" parent="1" source="huJF_Qs0aNRU9yXHvJFa-25" target="huJF_Qs0aNRU9yXHvJFa-43">
          <mxGeometry relative="1" as="geometry" />
        </mxCell>
        <mxCell id="huJF_Qs0aNRU9yXHvJFa-45" value="Redirect" style="edgeLabel;html=1;align=center;verticalAlign=middle;resizable=0;points=[];" vertex="1" connectable="0" parent="huJF_Qs0aNRU9yXHvJFa-44">
          <mxGeometry x="-0.0924" y="-1" relative="1" as="geometry">
            <mxPoint as="offset" />
          </mxGeometry>
        </mxCell>
        <mxCell id="huJF_Qs0aNRU9yXHvJFa-54" value="POST" style="swimlane;fontStyle=1;align=center;verticalAlign=top;childLayout=stackLayout;horizontal=1;startSize=26;horizontalStack=0;resizeParent=1;resizeParentMax=0;resizeLast=0;collapsible=1;marginBottom=0;whiteSpace=wrap;html=1;fontSize=8;" vertex="1" parent="1">
          <mxGeometry x="410" y="1010" width="120" height="86" as="geometry">
            <mxRectangle x="378" y="1040" width="70" height="30" as="alternateBounds" />
          </mxGeometry>
        </mxCell>
        <mxCell id="huJF_Qs0aNRU9yXHvJFa-55" value="Token" style="text;strokeColor=none;fillColor=none;align=left;verticalAlign=top;spacingLeft=4;spacingRight=4;overflow=hidden;rotatable=0;points=[[0,0.5],[1,0.5]];portConstraint=eastwest;whiteSpace=wrap;html=1;fontSize=8;" vertex="1" parent="huJF_Qs0aNRU9yXHvJFa-54">
          <mxGeometry y="26" width="120" height="26" as="geometry" />
        </mxCell>
        <mxCell id="huJF_Qs0aNRU9yXHvJFa-56" value="" style="line;strokeWidth=1;fillColor=none;align=left;verticalAlign=middle;spacingTop=-1;spacingLeft=3;spacingRight=3;rotatable=0;labelPosition=right;points=[];portConstraint=eastwest;strokeColor=inherit;" vertex="1" parent="huJF_Qs0aNRU9yXHvJFa-54">
          <mxGeometry y="52" width="120" height="8" as="geometry" />
        </mxCell>
        <mxCell id="huJF_Qs0aNRU9yXHvJFa-57" value="用户信息：工号、其他信息？" style="text;strokeColor=none;fillColor=none;align=left;verticalAlign=top;spacingLeft=4;spacingRight=4;overflow=hidden;rotatable=0;points=[[0,0.5],[1,0.5]];portConstraint=eastwest;whiteSpace=wrap;html=1;fontSize=8;" vertex="1" parent="huJF_Qs0aNRU9yXHvJFa-54">
          <mxGeometry y="60" width="120" height="26" as="geometry" />
        </mxCell>
        <mxCell id="huJF_Qs0aNRU9yXHvJFa-58" value="安全中心" style="sketch=0;aspect=fixed;pointerEvents=1;shadow=0;dashed=0;html=1;strokeColor=none;labelPosition=center;verticalLabelPosition=bottom;verticalAlign=top;align=center;fillColor=#00188D;shape=mxgraph.mscae.enterprise.database_server" vertex="1" parent="1">
          <mxGeometry x="560" y="840" width="38" height="50" as="geometry" />
        </mxCell>
        <mxCell id="huJF_Qs0aNRU9yXHvJFa-61" value="用户配置：所属机构、部门、岗位、权限等其他信息&lt;div style=&quot;font-size: 9px;&quot;&gt;用户保存&lt;/div&gt;" style="html=1;whiteSpace=wrap;fontSize=9;align=left;" vertex="1" parent="1">
          <mxGeometry x="780" y="960" width="110" height="50" as="geometry" />
        </mxCell>
        <mxCell id="huJF_Qs0aNRU9yXHvJFa-70" value="SSO Web" style="sketch=0;aspect=fixed;pointerEvents=1;shadow=0;dashed=0;html=1;strokeColor=none;labelPosition=center;verticalLabelPosition=bottom;verticalAlign=top;align=center;fillColor=#00188D;shape=mxgraph.mscae.enterprise.web_server" vertex="1" parent="1">
          <mxGeometry x="1195" y="538" width="38" height="50" as="geometry" />
        </mxCell>
        <mxCell id="huJF_Qs0aNRU9yXHvJFa-91" style="edgeStyle=orthogonalEdgeStyle;rounded=0;orthogonalLoop=1;jettySize=auto;html=1;" edge="1" parent="1" source="huJF_Qs0aNRU9yXHvJFa-71" target="huJF_Qs0aNRU9yXHvJFa-86">
          <mxGeometry relative="1" as="geometry">
            <Array as="points">
              <mxPoint x="1354" y="488" />
              <mxPoint x="1275" y="488" />
            </Array>
          </mxGeometry>
        </mxCell>
        <mxCell id="huJF_Qs0aNRU9yXHvJFa-93" value="用户校验" style="edgeLabel;html=1;align=center;verticalAlign=middle;resizable=0;points=[];" vertex="1" connectable="0" parent="huJF_Qs0aNRU9yXHvJFa-91">
          <mxGeometry x="0.3771" y="-4" relative="1" as="geometry">
            <mxPoint x="-4" y="-10" as="offset" />
          </mxGeometry>
        </mxCell>
        <mxCell id="huJF_Qs0aNRU9yXHvJFa-92" style="edgeStyle=orthogonalEdgeStyle;rounded=0;orthogonalLoop=1;jettySize=auto;html=1;exitX=0.5;exitY=0;exitDx=0;exitDy=0;exitPerimeter=0;" edge="1" parent="1" source="huJF_Qs0aNRU9yXHvJFa-71" target="huJF_Qs0aNRU9yXHvJFa-87">
          <mxGeometry relative="1" as="geometry">
            <Array as="points">
              <mxPoint x="1354" y="488" />
              <mxPoint x="1435" y="488" />
            </Array>
          </mxGeometry>
        </mxCell>
        <mxCell id="huJF_Qs0aNRU9yXHvJFa-94" value="密码校验&amp;amp;Token" style="edgeLabel;html=1;align=center;verticalAlign=middle;resizable=0;points=[];" vertex="1" connectable="0" parent="huJF_Qs0aNRU9yXHvJFa-92">
          <mxGeometry x="0.4535" y="3" relative="1" as="geometry">
            <mxPoint x="5" y="-7" as="offset" />
          </mxGeometry>
        </mxCell>
        <mxCell id="huJF_Qs0aNRU9yXHvJFa-112" style="edgeStyle=orthogonalEdgeStyle;rounded=0;orthogonalLoop=1;jettySize=auto;html=1;" edge="1" parent="1" source="huJF_Qs0aNRU9yXHvJFa-71" target="huJF_Qs0aNRU9yXHvJFa-111">
          <mxGeometry relative="1" as="geometry" />
        </mxCell>
        <mxCell id="huJF_Qs0aNRU9yXHvJFa-113" value="SSO个人首页" style="edgeLabel;html=1;align=center;verticalAlign=middle;resizable=0;points=[];" vertex="1" connectable="0" parent="huJF_Qs0aNRU9yXHvJFa-112">
          <mxGeometry x="0.1057" y="-1" relative="1" as="geometry">
            <mxPoint as="offset" />
          </mxGeometry>
        </mxCell>
        <mxCell id="huJF_Qs0aNRU9yXHvJFa-71" value="SSO Back" style="sketch=0;aspect=fixed;pointerEvents=1;shadow=0;dashed=0;html=1;strokeColor=none;labelPosition=center;verticalLabelPosition=bottom;verticalAlign=top;align=center;fillColor=#00188D;shape=mxgraph.mscae.enterprise.database_server" vertex="1" parent="1">
          <mxGeometry x="1335" y="538" width="38" height="50" as="geometry" />
        </mxCell>
        <mxCell id="huJF_Qs0aNRU9yXHvJFa-72" style="edgeStyle=orthogonalEdgeStyle;rounded=0;orthogonalLoop=1;jettySize=auto;html=1;entryX=0;entryY=0.5;entryDx=0;entryDy=0;entryPerimeter=0;" edge="1" parent="1" source="huJF_Qs0aNRU9yXHvJFa-70" target="huJF_Qs0aNRU9yXHvJFa-71">
          <mxGeometry relative="1" as="geometry" />
        </mxCell>
        <mxCell id="huJF_Qs0aNRU9yXHvJFa-74" value="" style="sketch=0;aspect=fixed;pointerEvents=1;shadow=0;dashed=0;html=1;strokeColor=none;labelPosition=center;verticalLabelPosition=bottom;verticalAlign=top;align=center;fillColor=#00188D;shape=mxgraph.azure.user" vertex="1" parent="1">
          <mxGeometry x="1085" y="538" width="47" height="50" as="geometry" />
        </mxCell>
        <mxCell id="huJF_Qs0aNRU9yXHvJFa-75" style="edgeStyle=orthogonalEdgeStyle;rounded=0;orthogonalLoop=1;jettySize=auto;html=1;entryX=0;entryY=0.5;entryDx=0;entryDy=0;entryPerimeter=0;" edge="1" parent="1" source="huJF_Qs0aNRU9yXHvJFa-74" target="huJF_Qs0aNRU9yXHvJFa-70">
          <mxGeometry relative="1" as="geometry" />
        </mxCell>
        <mxCell id="huJF_Qs0aNRU9yXHvJFa-118" value="Login" style="edgeLabel;html=1;align=center;verticalAlign=middle;resizable=0;points=[];" vertex="1" connectable="0" parent="huJF_Qs0aNRU9yXHvJFa-75">
          <mxGeometry x="0.3257" y="-4" relative="1" as="geometry">
            <mxPoint x="-13" y="-3" as="offset" />
          </mxGeometry>
        </mxCell>
        <mxCell id="huJF_Qs0aNRU9yXHvJFa-77" value="" style="edgeStyle=none;orthogonalLoop=1;jettySize=auto;html=1;rounded=0;shape=link;" edge="1" parent="1">
          <mxGeometry width="80" relative="1" as="geometry">
            <mxPoint x="960" y="350" as="sourcePoint" />
            <mxPoint x="960" y="1280" as="targetPoint" />
            <Array as="points" />
          </mxGeometry>
        </mxCell>
        <mxCell id="huJF_Qs0aNRU9yXHvJFa-86" value="用户中心" style="sketch=0;aspect=fixed;pointerEvents=1;shadow=0;dashed=0;html=1;strokeColor=none;labelPosition=center;verticalLabelPosition=bottom;verticalAlign=top;align=center;fillColor=#00188D;shape=mxgraph.mscae.enterprise.database_server" vertex="1" parent="1">
          <mxGeometry x="1258" y="392.5" width="38" height="50" as="geometry" />
        </mxCell>
        <mxCell id="huJF_Qs0aNRU9yXHvJFa-87" value="安全中心" style="sketch=0;aspect=fixed;pointerEvents=1;shadow=0;dashed=0;html=1;strokeColor=none;labelPosition=center;verticalLabelPosition=bottom;verticalAlign=top;align=center;fillColor=#00188D;shape=mxgraph.mscae.enterprise.database_server" vertex="1" parent="1">
          <mxGeometry x="1418" y="392.5" width="38" height="50" as="geometry" />
        </mxCell>
        <mxCell id="huJF_Qs0aNRU9yXHvJFa-95" value="财管" style="sketch=0;aspect=fixed;pointerEvents=1;shadow=0;dashed=0;html=1;strokeColor=none;labelPosition=center;verticalLabelPosition=bottom;verticalAlign=top;align=center;fillColor=#00188D;shape=mxgraph.mscae.enterprise.database_server" vertex="1" parent="1">
          <mxGeometry x="1778" y="538" width="38" height="50" as="geometry" />
        </mxCell>
        <mxCell id="huJF_Qs0aNRU9yXHvJFa-97" style="edgeStyle=orthogonalEdgeStyle;rounded=0;orthogonalLoop=1;jettySize=auto;html=1;entryX=0;entryY=0.5;entryDx=0;entryDy=0;entryPerimeter=0;exitX=1.018;exitY=0.521;exitDx=0;exitDy=0;exitPerimeter=0;" edge="1" parent="1" source="huJF_Qs0aNRU9yXHvJFa-111" target="huJF_Qs0aNRU9yXHvJFa-95">
          <mxGeometry relative="1" as="geometry">
            <mxPoint x="1645" y="538" as="sourcePoint" />
          </mxGeometry>
        </mxCell>
        <mxCell id="huJF_Qs0aNRU9yXHvJFa-105" value="跳转" style="edgeLabel;html=1;align=center;verticalAlign=middle;resizable=0;points=[];" vertex="1" connectable="0" parent="huJF_Qs0aNRU9yXHvJFa-97">
          <mxGeometry x="-0.0881" y="-2" relative="1" as="geometry">
            <mxPoint as="offset" />
          </mxGeometry>
        </mxCell>
        <mxCell id="huJF_Qs0aNRU9yXHvJFa-99" style="edgeStyle=orthogonalEdgeStyle;rounded=0;orthogonalLoop=1;jettySize=auto;html=1;entryX=1.014;entryY=0.639;entryDx=0;entryDy=0;entryPerimeter=0;exitX=0.293;exitY=-0.031;exitDx=0;exitDy=0;exitPerimeter=0;" edge="1" parent="1" source="huJF_Qs0aNRU9yXHvJFa-95" target="huJF_Qs0aNRU9yXHvJFa-87">
          <mxGeometry relative="1" as="geometry">
            <Array as="points">
              <mxPoint x="1789" y="425" />
            </Array>
          </mxGeometry>
        </mxCell>
        <mxCell id="huJF_Qs0aNRU9yXHvJFa-100" value="Token校验" style="edgeLabel;html=1;align=center;verticalAlign=middle;resizable=0;points=[];" vertex="1" connectable="0" parent="huJF_Qs0aNRU9yXHvJFa-99">
          <mxGeometry x="-0.2078" y="2" relative="1" as="geometry">
            <mxPoint as="offset" />
          </mxGeometry>
        </mxCell>
        <mxCell id="huJF_Qs0aNRU9yXHvJFa-101" value="财管个人首页" style="sketch=0;aspect=fixed;pointerEvents=1;shadow=0;dashed=0;html=1;strokeColor=none;labelPosition=center;verticalLabelPosition=bottom;verticalAlign=top;align=center;fillColor=#00188D;shape=mxgraph.mscae.enterprise.web_server" vertex="1" parent="1">
          <mxGeometry x="1908" y="538" width="38" height="50" as="geometry" />
        </mxCell>
        <mxCell id="huJF_Qs0aNRU9yXHvJFa-102" style="edgeStyle=orthogonalEdgeStyle;rounded=0;orthogonalLoop=1;jettySize=auto;html=1;entryX=0;entryY=0.5;entryDx=0;entryDy=0;entryPerimeter=0;" edge="1" parent="1" source="huJF_Qs0aNRU9yXHvJFa-95" target="huJF_Qs0aNRU9yXHvJFa-101">
          <mxGeometry relative="1" as="geometry" />
        </mxCell>
        <mxCell id="huJF_Qs0aNRU9yXHvJFa-103" value="Redirect" style="edgeLabel;html=1;align=center;verticalAlign=middle;resizable=0;points=[];" vertex="1" connectable="0" parent="huJF_Qs0aNRU9yXHvJFa-102">
          <mxGeometry x="-0.048" y="-2" relative="1" as="geometry">
            <mxPoint as="offset" />
          </mxGeometry>
        </mxCell>
        <mxCell id="huJF_Qs0aNRU9yXHvJFa-115" style="edgeStyle=orthogonalEdgeStyle;shape=link;rounded=0;orthogonalLoop=1;jettySize=auto;html=1;" edge="1" parent="1" source="huJF_Qs0aNRU9yXHvJFa-108">
          <mxGeometry relative="1" as="geometry">
            <mxPoint x="1649.9999999999995" y="568" as="targetPoint" />
          </mxGeometry>
        </mxCell>
        <mxCell id="huJF_Qs0aNRU9yXHvJFa-108" value="&lt;span style=&quot;text-wrap: nowrap; background-color: rgb(255, 255, 255);&quot;&gt;&lt;font style=&quot;font-size: 9px;&quot;&gt;Token&amp;amp;财管个人首页&lt;/font&gt;&lt;/span&gt;" style="rounded=0;whiteSpace=wrap;html=1;" vertex="1" parent="1">
          <mxGeometry x="1595" y="598" width="110" height="40" as="geometry" />
        </mxCell>
        <mxCell id="huJF_Qs0aNRU9yXHvJFa-111" value="SSO Web" style="sketch=0;aspect=fixed;pointerEvents=1;shadow=0;dashed=0;html=1;strokeColor=none;labelPosition=center;verticalLabelPosition=bottom;verticalAlign=top;align=center;fillColor=#00188D;shape=mxgraph.mscae.enterprise.web_server" vertex="1" parent="1">
          <mxGeometry x="1505" y="538" width="38" height="50" as="geometry" />
        </mxCell>
        <mxCell id="huJF_Qs0aNRU9yXHvJFa-143" value="SSO Web" style="sketch=0;aspect=fixed;pointerEvents=1;shadow=0;dashed=0;html=1;strokeColor=none;labelPosition=center;verticalLabelPosition=bottom;verticalAlign=top;align=center;fillColor=#00188D;shape=mxgraph.mscae.enterprise.web_server" vertex="1" parent="1">
          <mxGeometry x="114" y="1140" width="38" height="50" as="geometry" />
        </mxCell>
        <mxCell id="huJF_Qs0aNRU9yXHvJFa-144" style="edgeStyle=orthogonalEdgeStyle;rounded=0;orthogonalLoop=1;jettySize=auto;html=1;entryX=0;entryY=0.5;entryDx=0;entryDy=0;entryPerimeter=0;" edge="1" parent="1" source="huJF_Qs0aNRU9yXHvJFa-148" target="huJF_Qs0aNRU9yXHvJFa-153">
          <mxGeometry relative="1" as="geometry">
            <mxPoint x="415" y="1165" as="targetPoint" />
          </mxGeometry>
        </mxCell>
        <mxCell id="huJF_Qs0aNRU9yXHvJFa-145" value="YES" style="edgeLabel;html=1;align=center;verticalAlign=middle;resizable=0;points=[];" vertex="1" connectable="0" parent="huJF_Qs0aNRU9yXHvJFa-144">
          <mxGeometry x="0.0456" relative="1" as="geometry">
            <mxPoint x="-10" as="offset" />
          </mxGeometry>
        </mxCell>
        <mxCell id="huJF_Qs0aNRU9yXHvJFa-148" value="SSO Back" style="sketch=0;aspect=fixed;pointerEvents=1;shadow=0;dashed=0;html=1;strokeColor=none;labelPosition=center;verticalLabelPosition=bottom;verticalAlign=top;align=center;fillColor=#00188D;shape=mxgraph.mscae.enterprise.database_server" vertex="1" parent="1">
          <mxGeometry x="330" y="1140" width="38" height="50" as="geometry" />
        </mxCell>
        <mxCell id="huJF_Qs0aNRU9yXHvJFa-149" style="edgeStyle=orthogonalEdgeStyle;rounded=0;orthogonalLoop=1;jettySize=auto;html=1;entryX=0;entryY=0.5;entryDx=0;entryDy=0;entryPerimeter=0;" edge="1" parent="1" source="huJF_Qs0aNRU9yXHvJFa-143" target="huJF_Qs0aNRU9yXHvJFa-148">
          <mxGeometry relative="1" as="geometry" />
        </mxCell>
        <mxCell id="huJF_Qs0aNRU9yXHvJFa-165" value="新增/删除用户系统访问权限" style="edgeLabel;html=1;align=center;verticalAlign=middle;resizable=0;points=[];" vertex="1" connectable="0" parent="huJF_Qs0aNRU9yXHvJFa-149">
          <mxGeometry x="-0.2598" y="1" relative="1" as="geometry">
            <mxPoint x="10" y="1" as="offset" />
          </mxGeometry>
        </mxCell>
        <mxCell id="huJF_Qs0aNRU9yXHvJFa-151" value="" style="sketch=0;aspect=fixed;pointerEvents=1;shadow=0;dashed=0;html=1;strokeColor=none;labelPosition=center;verticalLabelPosition=bottom;verticalAlign=top;align=center;shape=mxgraph.mscae.enterprise.user_permissions;fillColor=#0078D7;" vertex="1" parent="1">
          <mxGeometry x="4" y="1140" width="47" height="50" as="geometry" />
        </mxCell>
        <mxCell id="huJF_Qs0aNRU9yXHvJFa-152" style="edgeStyle=orthogonalEdgeStyle;rounded=0;orthogonalLoop=1;jettySize=auto;html=1;entryX=0;entryY=0.5;entryDx=0;entryDy=0;entryPerimeter=0;" edge="1" parent="1" source="huJF_Qs0aNRU9yXHvJFa-151" target="huJF_Qs0aNRU9yXHvJFa-143">
          <mxGeometry relative="1" as="geometry" />
        </mxCell>
        <mxCell id="huJF_Qs0aNRU9yXHvJFa-153" value="财管" style="sketch=0;aspect=fixed;pointerEvents=1;shadow=0;dashed=0;html=1;strokeColor=none;labelPosition=center;verticalLabelPosition=bottom;verticalAlign=top;align=center;fillColor=#00188D;shape=mxgraph.mscae.enterprise.database_server" vertex="1" parent="1">
          <mxGeometry x="550" y="1140" width="38" height="50" as="geometry" />
        </mxCell>
        <mxCell id="huJF_Qs0aNRU9yXHvJFa-154" style="edgeStyle=orthogonalEdgeStyle;rounded=0;orthogonalLoop=1;jettySize=auto;html=1;entryX=0;entryY=0.5;entryDx=0;entryDy=0;" edge="1" parent="1" source="huJF_Qs0aNRU9yXHvJFa-155" target="huJF_Qs0aNRU9yXHvJFa-162">
          <mxGeometry relative="1" as="geometry" />
        </mxCell>
        <mxCell id="huJF_Qs0aNRU9yXHvJFa-155" value="财管Web" style="sketch=0;aspect=fixed;pointerEvents=1;shadow=0;dashed=0;html=1;strokeColor=none;labelPosition=center;verticalLabelPosition=bottom;verticalAlign=top;align=center;fillColor=#00188D;shape=mxgraph.mscae.enterprise.web_server" vertex="1" parent="1">
          <mxGeometry x="690" y="1140" width="38" height="50" as="geometry" />
        </mxCell>
        <mxCell id="huJF_Qs0aNRU9yXHvJFa-156" style="edgeStyle=orthogonalEdgeStyle;rounded=0;orthogonalLoop=1;jettySize=auto;html=1;entryX=0;entryY=0.5;entryDx=0;entryDy=0;entryPerimeter=0;" edge="1" parent="1" source="huJF_Qs0aNRU9yXHvJFa-153" target="huJF_Qs0aNRU9yXHvJFa-155">
          <mxGeometry relative="1" as="geometry" />
        </mxCell>
        <mxCell id="huJF_Qs0aNRU9yXHvJFa-157" value="Redirect" style="edgeLabel;html=1;align=center;verticalAlign=middle;resizable=0;points=[];" vertex="1" connectable="0" parent="huJF_Qs0aNRU9yXHvJFa-156">
          <mxGeometry x="-0.0924" y="-1" relative="1" as="geometry">
            <mxPoint as="offset" />
          </mxGeometry>
        </mxCell>
        <mxCell id="huJF_Qs0aNRU9yXHvJFa-158" value="POST" style="swimlane;fontStyle=1;align=center;verticalAlign=top;childLayout=stackLayout;horizontal=1;startSize=26;horizontalStack=0;resizeParent=1;resizeParentMax=0;resizeLast=0;collapsible=1;marginBottom=0;whiteSpace=wrap;html=1;fontSize=8;" vertex="1" parent="1">
          <mxGeometry x="400" y="1190" width="120" height="86" as="geometry">
            <mxRectangle x="378" y="1040" width="70" height="30" as="alternateBounds" />
          </mxGeometry>
        </mxCell>
        <mxCell id="huJF_Qs0aNRU9yXHvJFa-159" value="Token" style="text;strokeColor=none;fillColor=none;align=left;verticalAlign=top;spacingLeft=4;spacingRight=4;overflow=hidden;rotatable=0;points=[[0,0.5],[1,0.5]];portConstraint=eastwest;whiteSpace=wrap;html=1;fontSize=8;" vertex="1" parent="huJF_Qs0aNRU9yXHvJFa-158">
          <mxGeometry y="26" width="120" height="26" as="geometry" />
        </mxCell>
        <mxCell id="huJF_Qs0aNRU9yXHvJFa-160" value="" style="line;strokeWidth=1;fillColor=none;align=left;verticalAlign=middle;spacingTop=-1;spacingLeft=3;spacingRight=3;rotatable=0;labelPosition=right;points=[];portConstraint=eastwest;strokeColor=inherit;" vertex="1" parent="huJF_Qs0aNRU9yXHvJFa-158">
          <mxGeometry y="52" width="120" height="8" as="geometry" />
        </mxCell>
        <mxCell id="huJF_Qs0aNRU9yXHvJFa-161" value="用户信息：工号、其他信息？" style="text;strokeColor=none;fillColor=none;align=left;verticalAlign=top;spacingLeft=4;spacingRight=4;overflow=hidden;rotatable=0;points=[[0,0.5],[1,0.5]];portConstraint=eastwest;whiteSpace=wrap;html=1;fontSize=8;" vertex="1" parent="huJF_Qs0aNRU9yXHvJFa-158">
          <mxGeometry y="60" width="120" height="26" as="geometry" />
        </mxCell>
        <mxCell id="huJF_Qs0aNRU9yXHvJFa-162" value="用户配置：所属机构、部门、岗位、权限等其他信息&lt;div style=&quot;font-size: 9px;&quot;&gt;用户保存&lt;/div&gt;" style="html=1;whiteSpace=wrap;fontSize=9;align=left;" vertex="1" parent="1">
          <mxGeometry x="770" y="1140" width="110" height="50" as="geometry" />
        </mxCell>
        <mxCell id="huJF_Qs0aNRU9yXHvJFa-166" value="用户权限在各系统自身调整&lt;div&gt;除工号以为的信息在各系统自身维护，包括变更，如所属机构、电话、部门...&lt;/div&gt;&lt;div&gt;SSO只做用户访问系统的维护、只保存用户的关键信息&lt;/div&gt;&lt;div&gt;SSO和其他系统交互时只使用工号&lt;/div&gt;&lt;div&gt;员工的信息由对应的SSO审批管理员在各自系统的页面中维护&lt;/div&gt;" style="rounded=0;whiteSpace=wrap;html=1;align=left;" vertex="1" parent="1">
          <mxGeometry x="1140" y="770" width="490" height="100" as="geometry" />
        </mxCell>
        <mxCell id="huJF_Qs0aNRU9yXHvJFa-167" value="SSO只保存工号？状态、电话啥的要保存吗？&lt;div&gt;关系到跳转时携带的用户信息&lt;/div&gt;" style="rounded=0;whiteSpace=wrap;html=1;align=left;" vertex="1" parent="1">
          <mxGeometry x="1140" y="690" width="490" height="60" as="geometry" />
        </mxCell>
        <mxCell id="huJF_Qs0aNRU9yXHvJFa-168" value="SSO不做机构、科目等参数的管理&lt;div&gt;科目、机构等参数管理在总账内管实现，财管和税务和总账内管对接&lt;/div&gt;&lt;div&gt;SSO没有机构信息，因此也不做HR系统机构和总账机构参数之间的转换、映射，因此SSO的用户信息也不做机构属性&lt;/div&gt;&lt;div&gt;且各系统自身维护用户属性可以和HR的不一致：如机构、岗位等&lt;/div&gt;" style="rounded=0;whiteSpace=wrap;html=1;align=left;" vertex="1" parent="1">
          <mxGeometry x="1140" y="900" width="490" height="80" as="geometry" />
        </mxCell>
      </root>
    </mxGraphModel>
  </diagram>
</mxfile>